<svg id="Capa_1" enable-background="new 0 0 512 512" height="512" viewBox="0 0 512 512" width="512" xmlns="http://www.w3.org/2000/svg" xmlns:xlink="http://www.w3.org/1999/xlink"><linearGradient id="SVGID_1_" gradientUnits="userSpaceOnUse" x1="256" x2="256" y1="512" y2="0"><stop offset="0" stop-color="#fd5900"/><stop offset="1" stop-color="#ffde00"/></linearGradient><g><g><path d="m226 391h-30c-8.284 0-15 6.716-15 15s6.716 15 15 15h30c8.284 0 15-6.716 15-15s-6.716-15-15-15zm0-120h-30c-8.284 0-15 6.716-15 15s6.716 15 15 15h30c8.284 0 15-6.716 15-15s-6.716-15-15-15zm-90-60h-30c-8.284 0-15 6.716-15 15s6.716 15 15 15h30c8.284 0 15-6.716 15-15s-6.716-15-15-15zm90 120h-30c-8.284 0-15 6.716-15 15s6.716 15 15 15h30c8.284 0 15-6.716 15-15s-6.716-15-15-15zm-90-60h-30c-8.284 0-15 6.716-15 15s6.716 15 15 15h30c8.284 0 15-6.716 15-15s-6.716-15-15-15zm0 120h-30c-8.284 0-15 6.716-15 15s6.716 15 15 15h30c8.284 0 15-6.716 15-15s-6.716-15-15-15zm0-60h-30c-8.284 0-15 6.716-15 15s6.716 15 15 15h30c8.284 0 15-6.716 15-15s-6.716-15-15-15zm180 60h-30c-8.284 0-15 6.716-15 15s6.716 15 15 15h30c8.284 0 15-6.716 15-15s-6.716-15-15-15zm-90-180h-30c-8.284 0-15 6.716-15 15s6.716 15 15 15h30c8.284 0 15-6.716 15-15s-6.716-15-15-15zm180 0h-30c-8.284 0-15 6.716-15 15s6.716 15 15 15h30c8.284 0 15-6.716 15-15s-6.716-15-15-15zm0 60h-30c-8.284 0-15 6.716-15 15s6.716 15 15 15h30c8.284 0 15-6.716 15-15s-6.716-15-15-15zm98.864-190.324c-8.328-12.947-22.483-20.676-37.864-20.676h-16v-15c0-24.813-20.187-45-45-45s-45 20.187-45 45v15h-60v-15c0-24.813-20.187-45-45-45s-45 20.187-45 45v15h-60v-15c0-24.813-20.187-45-45-45s-45 20.187-45 45v15h-16c-24.813 0-45 20.187-45 45v392c0 8.284 6.716 15 15 15h482c8.284 0 15-6.716 15-15v-392c0-8.656-2.468-17.067-7.136-24.324zm-113.864-35.676c0-8.271 6.729-15 15-15s15 6.729 15 15v15h-30zm-150 0c0-8.271 6.729-15 15-15s15 6.729 15 15v15h-30zm-150 0c0-8.271 6.729-15 15-15s15 6.729 15 15v15h-30zm391 437h-452v-377c0-8.271 6.729-15 15-15h76v15c0 8.271-6.729 15-15 15-8.284 0-15 6.716-15 15s6.716 15 15 15c24.813 0 45-20.187 45-45v-15h120v15c0 8.271-6.729 15-15 15-8.284 0-15 6.716-15 15s6.716 15 15 15c24.813 0 45-20.187 45-45v-15h120v15c0 8.271-6.729 15-15 15-8.284 0-15 6.716-15 15s6.716 15 15 15c24.813 0 45-20.187 45-45v-15h16c5.129 0 9.852 2.582 12.634 6.907v.001c1.548 2.405 2.366 5.204 2.366 8.092zm-76-151h-30c-8.284 0-15 6.716-15 15s6.716 15 15 15h30c8.284 0 15-6.716 15-15s-6.716-15-15-15zm0 60h-30c-8.284 0-15 6.716-15 15s6.716 15 15 15h30c8.284 0 15-6.716 15-15s-6.716-15-15-15zm-90-60h-30c-8.284 0-15 6.716-15 15s6.716 15 15 15h30c8.284 0 15-6.716 15-15s-6.716-15-15-15zm0-60h-30c-8.284 0-15 6.716-15 15s6.716 15 15 15h30c8.284 0 15-6.716 15-15s-6.716-15-15-15zm0-60h-30c-8.284 0-15 6.716-15 15s6.716 15 15 15h30c8.284 0 15-6.716 15-15s-6.716-15-15-15z" fill="url(#SVGID_1_)"/></g></g></svg>