<svg id="Capa_1" enable-background="new 0 0 512 512" height="512" viewBox="0 0 512 512" width="512" xmlns="http://www.w3.org/2000/svg" xmlns:xlink="http://www.w3.org/1999/xlink"><linearGradient id="SVGID_1_" gradientUnits="userSpaceOnUse" x1="256" x2="256" y1="451.018" y2="60.983"><stop offset="0" stop-color="#00b59c"/><stop offset="1" stop-color="#9cffac"/></linearGradient><g><g><path d="m245.123 64.713-115.759 101.288h-84.364c-24.813 0-45 20.187-45 45v90c0 24.813 20.187 45 45 45h84.364l115.759 101.289c9.67 8.462 24.877 1.586 24.877-11.289v-360c0-12.85-15.187-19.768-24.877-11.288zm-125.123 251.288h-75c-8.271 0-15-6.729-15-15v-90c0-8.271 6.729-15 15-15h75zm120 86.944-90-78.75v-136.387l90-78.75zm167-251.944c-57.897 0-105 47.103-105 105s47.103 105 105 105 105-47.103 105-105-47.103-105-105-105zm0 180c-41.355 0-75-33.645-75-75s33.645-75 75-75 75 33.645 75 75-33.645 75-75 75zm30-90h-15v-15c0-8.284-6.716-15-15-15s-15 6.716-15 15v15h-15c-8.284 0-15 6.716-15 15s6.716 15 15 15h15v15c0 8.284 6.716 15 15 15s15-6.716 15-15v-15h15c8.284 0 15-6.716 15-15s-6.716-15-15-15z" fill="url(#SVGID_1_)"/></g></g></svg>