<svg width="143" height="143" viewBox="0 0 143 143" fill="none" xmlns="http://www.w3.org/2000/svg">
<path d="M113.395 0H21.2266C18.9129 0 17.0371 1.87576 17.0371 4.18945V138.811C17.0371 141.124 18.9129 143 21.2266 143H113.395C120.325 143 125.963 137.362 125.963 130.432V12.5684C125.963 5.63817 120.325 0 113.395 0ZM58.9316 8.37891H75.6895V38.5351L69.6343 34.4985C68.2272 33.5606 66.3936 33.5606 64.9865 34.4985L58.9316 38.5351V8.37891ZM33.7949 134.621H25.416V8.37891H33.7949V134.621ZM117.584 130.432C117.584 132.742 115.705 134.621 113.395 134.621H42.1738V8.37891H50.5527V46.3633C50.5527 47.9084 51.4032 49.328 52.7653 50.057C54.128 50.7862 55.7806 50.7061 57.0659 49.8492L67.3105 43.0195L77.5552 49.8492C78.8424 50.7075 80.4959 50.7851 81.8558 50.057C83.2179 49.328 84.0684 47.9084 84.0684 46.3633V8.37891H113.395C115.705 8.37891 117.584 10.2583 117.584 12.5684V130.432ZM105.016 84.0684H54.7422C52.4285 84.0684 50.5527 85.9441 50.5527 88.2578C50.5527 90.5715 52.4285 92.4473 54.7422 92.4473H105.016C107.329 92.4473 109.205 90.5715 109.205 88.2578C109.205 85.9441 107.329 84.0684 105.016 84.0684ZM96.6367 100.826H63.1211C60.8074 100.826 58.9316 102.702 58.9316 105.016C58.9316 107.329 60.8074 109.205 63.1211 109.205H96.6367C98.9504 109.205 100.826 107.329 100.826 105.016C100.826 102.702 98.9504 100.826 96.6367 100.826Z" fill="url(#paint0_linear)"/>
<defs>
<linearGradient id="paint0_linear" x1="71.5" y1="143" x2="71.5" y2="0" gradientUnits="userSpaceOnUse">
<stop stop-color="#FF8E6A"/>
<stop offset="1" stop-color="#FFE175"/>
</linearGradient>
</defs>
</svg>
