<svg width="48" height="48" viewBox="0 0 48 48" fill="none" xmlns="http://www.w3.org/2000/svg">
<rect width="48" height="48" rx="6" fill="#FFF6D7"/>
<path d="M33.9609 7H12.0469C11.4968 7 11.0508 7.44598 11.0508 7.99609V40.0039C11.0508 40.554 11.4968 41 12.0469 41H33.9609C35.6087 41 36.9492 39.6595 36.9492 38.0117V9.98828C36.9492 8.34054 35.6087 7 33.9609 7ZM21.0117 8.99219H24.9961V16.1622L23.5564 15.2024C23.2219 14.9794 22.7859 14.9794 22.4513 15.2024L21.0117 16.1622V8.99219ZM15.0352 39.0078H13.043V8.99219H15.0352V39.0078ZM34.957 38.0117C34.957 38.561 34.5102 39.0078 33.9609 39.0078H17.0273V8.99219H19.0195V18.0234C19.0195 18.3908 19.2217 18.7283 19.5456 18.9017C19.8696 19.075 20.2625 19.056 20.5681 18.8523L23.0039 17.2284L25.4397 18.8523C25.7458 19.0563 26.1389 19.0748 26.4622 18.9017C26.7861 18.7283 26.9883 18.3908 26.9883 18.0234V8.99219H33.9609C34.5102 8.99219 34.957 9.43904 34.957 9.98828V38.0117ZM31.9688 26.9883H20.0156C19.4655 26.9883 19.0195 27.4343 19.0195 27.9844C19.0195 28.5345 19.4655 28.9805 20.0156 28.9805H31.9688C32.5189 28.9805 32.9648 28.5345 32.9648 27.9844C32.9648 27.4343 32.5189 26.9883 31.9688 26.9883ZM29.9766 30.9727H22.0078C21.4577 30.9727 21.0117 31.4186 21.0117 31.9688C21.0117 32.5189 21.4577 32.9648 22.0078 32.9648H29.9766C30.5267 32.9648 30.9727 32.5189 30.9727 31.9688C30.9727 31.4186 30.5267 30.9727 29.9766 30.9727Z" fill="url(#paint0_linear)"/>
<defs>
<linearGradient id="paint0_linear" x1="24" y1="41" x2="24" y2="7" gradientUnits="userSpaceOnUse">
<stop stop-color="#FF8E6A"/>
<stop offset="1" stop-color="#FFE175"/>
</linearGradient>
</defs>
</svg>

