<svg id="Capa_1" enable-background="new 0 0 512 512" height="512" viewBox="0 0 512 512" width="512" xmlns="http://www.w3.org/2000/svg" xmlns:xlink="http://www.w3.org/1999/xlink"><linearGradient id="SVGID_1_" gradientUnits="userSpaceOnUse" x1="256" x2="256" y1="512" y2="0"><stop offset="0" stop-color="#fd5900"/><stop offset="1" stop-color="#ffde00"/></linearGradient><g><g><path d="m497 61h-76v-46c0-8.291-6.709-15-15-15s-15 6.709-15 15v46h-120v-46c0-8.291-6.709-15-15-15s-15 6.709-15 15v46h-120v-46c0-8.291-6.709-15-15-15s-15 6.709-15 15v46h-76c-8.291 0-15 6.709-15 15v421c0 8.291 6.709 15 15 15h482c8.291 0 15-6.709 15-15v-421c0-8.291-6.709-15-15-15zm-15 421h-452v-301h452zm0-331h-452v-60h452zm-371.605 145.605c2.93 2.93 6.768 4.395 10.605 4.395s7.676-1.465 10.605-4.395l60-60c5.859-5.859 5.859-15.352 0-21.211s-15.352-5.859-21.211 0l-49.394 49.395-19.395-19.395c-5.859-5.859-15.352-5.859-21.211 0s-5.859 15.352 0 21.211zm100.605 4.395h30c8.291 0 15-6.709 15-15s-6.709-15-15-15h-30c-8.291 0-15 6.709-15 15s6.709 15 15 15zm90 0h30c8.291 0 15-6.709 15-15s-6.709-15-15-15h-30c-8.291 0-15 6.709-15 15s6.709 15 15 15zm30 90h-30c-8.291 0-15 6.709-15 15s6.709 15 15 15h30c8.291 0 15-6.709 15-15s-6.709-15-15-15zm60 30h30c8.291 0 15-6.709 15-15s-6.709-15-15-15h-30c-8.291 0-15 6.709-15 15s6.709 15 15 15zm-199.395-55.605c-5.859-5.859-15.352-5.859-21.211 0s-5.859 15.352 0 21.211l30 30c2.93 2.93 6.768 4.395 10.605 4.395s7.676-1.465 10.605-4.395l60-60c5.859-5.859 5.859-15.352 0-21.211s-15.352-5.859-21.211 0l-49.393 49.394zm199.395-64.395h30c8.291 0 15-6.709 15-15s-6.709-15-15-15h-30c-8.291 0-15 6.709-15 15s6.709 15 15 15zm-300 120h30c8.291 0 15-6.709 15-15s-6.709-15-15-15h-30c-8.291 0-15 6.709-15 15s6.709 15 15 15z" fill="url(#SVGID_1_)"/></g></g></svg>