<svg width="148" height="148" viewBox="0 0 148 148" fill="none" xmlns="http://www.w3.org/2000/svg">
<path d="M146.724 35.9524L112.048 1.27563C111.646 0.873258 111.166 0.554133 110.632 0.333578C110.102 0.114469 109.541 0 108.977 0H56.9453C54.5487 0 52.6094 1.93932 52.6094 4.33594V17.3438H4.33594C1.93932 17.3438 0 19.2831 0 21.6797V143.664C0 146.061 1.93932 148 4.33594 148H91.6328C94.0294 148 95.9688 146.061 95.9688 143.664V130.078H143.664C146.061 130.078 148 128.139 148 125.742V39.0234C148 38.4592 147.886 37.8975 147.666 37.3677C147.446 36.8344 147.127 36.3537 146.724 35.9524ZM113.312 14.8032L133.197 34.6875H113.312V14.8032ZM87.2969 139.328H8.67188V26.0156H52.6094V125.742C52.6094 128.139 54.5487 130.078 56.9453 130.078H87.2969V139.328ZM139.328 121.406H61.2812V8.67188H104.641V39.0234C104.641 41.4201 106.58 43.3594 108.977 43.3594H139.328V121.406Z" fill="url(#paint0_linear)"/>
<path d="M69.9531 65.0391C69.9531 67.4357 71.8924 69.375 74.2891 69.375H126.32C128.717 69.375 130.656 67.4357 130.656 65.0391C130.656 62.6424 128.717 60.7031 126.32 60.7031H74.2891C71.8924 60.7031 69.9531 62.6424 69.9531 65.0391Z" fill="url(#paint1_linear)"/>
<path d="M126.32 86.7188H74.2891C71.8924 86.7188 69.9531 88.6581 69.9531 91.0547C69.9531 93.4513 71.8924 95.3906 74.2891 95.3906H126.32C128.717 95.3906 130.656 93.4513 130.656 91.0547C130.656 88.6581 128.717 86.7188 126.32 86.7188Z" fill="url(#paint2_linear)"/>
<defs>
<linearGradient id="paint0_linear" x1="74" y1="148" x2="74" y2="0" gradientUnits="userSpaceOnUse">
<stop stop-color="#3AA0FF"/>
<stop offset="1" stop-color="#48F4FF"/>
</linearGradient>
<linearGradient id="paint1_linear" x1="100.305" y1="69.375" x2="100.305" y2="60.7031" gradientUnits="userSpaceOnUse">
<stop stop-color="#57B9FF"/>
<stop offset="1" stop-color="#00F0FF"/>
</linearGradient>
<linearGradient id="paint2_linear" x1="100.305" y1="95.3906" x2="100.305" y2="86.7188" gradientUnits="userSpaceOnUse">
<stop stop-color="#57B9FF"/>
<stop offset="1" stop-color="#00F0FF"/>
</linearGradient>
</defs>
</svg>
