<svg width="48" height="48" viewBox="0 0 48 48" fill="none" xmlns="http://www.w3.org/2000/svg">
<rect width="48" height="48" rx="6" fill="#D5F5FB"/>
<path d="M37.75 16.0447L30.9553 9.24996C30.8766 9.17111 30.7825 9.10858 30.678 9.06536C30.5741 9.02243 30.4641 9 30.3535 9H20.1582C19.6886 9 19.3086 9.38 19.3086 9.84961V12.3984H9.84961C9.38 12.3984 9 12.7784 9 13.248V37.1504C9 37.62 9.38 38 9.84961 38H26.9551C27.4247 38 27.8047 37.62 27.8047 37.1504V34.4883H37.1504C37.62 34.4883 38 34.1083 38 33.6387V16.6465C38 16.5359 37.9776 16.4259 37.9346 16.322C37.8914 16.2175 37.8289 16.1234 37.75 16.0447ZM31.2031 11.9006L35.0994 15.7969H31.2031V11.9006ZM26.1055 36.3008H10.6992V14.0977H19.3086V33.6387C19.3086 34.1083 19.6886 34.4883 20.1582 34.4883H26.1055V36.3008ZM36.3008 32.7891H21.0078V10.6992H29.5039V16.6465C29.5039 17.1161 29.8839 17.4961 30.3535 17.4961H36.3008V32.7891Z" fill="url(#paint0_linear)"/>
<path d="M22.707 21.7441C22.707 22.2137 23.087 22.5938 23.5566 22.5938H33.752C34.2216 22.5938 34.6016 22.2137 34.6016 21.7441C34.6016 21.2745 34.2216 20.8945 33.752 20.8945H23.5566C23.087 20.8945 22.707 21.2745 22.707 21.7441Z" fill="url(#paint1_linear)"/>
<path d="M33.752 25.9922H23.5566C23.087 25.9922 22.707 26.3722 22.707 26.8418C22.707 27.3114 23.087 27.6914 23.5566 27.6914H33.752C34.2216 27.6914 34.6016 27.3114 34.6016 26.8418C34.6016 26.3722 34.2216 25.9922 33.752 25.9922Z" fill="url(#paint2_linear)"/>
<defs>
<linearGradient id="paint0_linear" x1="23.5" y1="38" x2="23.5" y2="9" gradientUnits="userSpaceOnUse">
<stop stop-color="#3AA0FF"/>
<stop offset="1" stop-color="#48F4FF"/>
</linearGradient>
<linearGradient id="paint1_linear" x1="28.6543" y1="22.5938" x2="28.6543" y2="20.8945" gradientUnits="userSpaceOnUse">
<stop stop-color="#57B9FF"/>
<stop offset="1" stop-color="#00F0FF"/>
</linearGradient>
<linearGradient id="paint2_linear" x1="28.6543" y1="27.6914" x2="28.6543" y2="25.9922" gradientUnits="userSpaceOnUse">
<stop stop-color="#57B9FF"/>
<stop offset="1" stop-color="#00F0FF"/>
</linearGradient>
</defs>
</svg>

