<svg id="Capa_1" enable-background="new 0 0 512.079 512.079" height="512" viewBox="0 0 512.079 512.079" width="512" xmlns="http://www.w3.org/2000/svg" xmlns:xlink="http://www.w3.org/1999/xlink"><linearGradient id="SVGID_1_" gradientUnits="userSpaceOnUse" x1="256.04" x2="256.04" y1="421.04" y2="91.04"><stop offset="0" stop-color="#fd3a84"/><stop offset="1" stop-color="#ffa68d"/></linearGradient><g><g><path d="m256 151.04c-57.897 0-105 47.103-105 105s47.103 105 105 105 105-47.103 105-105-47.103-105-105-105zm0 180c-41.355 0-75-33.645-75-75s33.645-75 75-75 75 33.645 75 75-33.645 75-75 75zm253.231-83.793c-1.15-1.59-28.684-39.375-73.218-77.59-50.583-43.408-113.09-78.617-180.013-78.617-66.9 0-129.388 35.189-179.977 78.619-44.515 38.216-72.029 76.003-73.179 77.593-3.793 5.245-3.793 12.332 0 17.577 1.149 1.59 28.664 39.377 73.179 77.593 50.591 43.43 113.079 78.618 179.977 78.618 66.915 0 129.42-35.201 180.014-78.617 44.534-38.215 72.067-76 73.218-77.59 3.796-5.248 3.796-12.339-.001-17.586zm-253.231 143.793c-63.672 0-122.116-38.583-159.933-70.951-29.614-25.347-51.612-51.004-62.093-64.044 25.148-31.243 116.625-135.005 222.026-135.005 63.674 0 122.141 38.584 159.976 70.953 29.623 25.344 51.633 50.997 62.124 64.042-25.165 31.243-116.696 135.005-222.1 135.005zm0-180c-24.813 0-45 20.187-45 45s20.187 45 45 45 45-20.187 45-45-20.187-45-45-45zm0 60c-8.271 0-15-6.729-15-15s6.729-15 15-15 15 6.729 15 15-6.729 15-15 15z" fill="url(#SVGID_1_)"/></g></g></svg>