<svg id="Capa_1" enable-background="new 0 0 512 512" height="512" viewBox="0 0 512 512" width="512" xmlns="http://www.w3.org/2000/svg" xmlns:xlink="http://www.w3.org/1999/xlink"><linearGradient id="SVGID_1_" gradientUnits="userSpaceOnUse" x1="256" x2="256" y1="451" y2="61"><stop offset="0" stop-color="#fd3a84"/><stop offset="1" stop-color="#ffa68d"/></linearGradient><g><g><path d="m497 61h-482c-8.284 0-15 6.716-15 15v360c0 8.284 6.716 15 15 15h482c8.284 0 15-6.716 15-15v-360c0-8.284-6.716-15-15-15zm-407 360h-60v-60h60zm0-90h-60v-60h60zm0-90h-60v-60h60zm0-90h-60v-60h60zm302 270h-272v-330h272zm90 0h-60v-60h60zm0-90h-60v-60h60zm0-90h-60v-60h60zm0-90h-60v-60h60zm-263.391 163.053c4.723 2.673 10.493 2.578 15.108-.191l75-45c4.518-2.711 7.283-7.593 7.283-12.862s-2.765-10.151-7.282-12.862l-75-45c-4.636-2.78-10.406-2.852-15.108-.191-4.703 2.662-7.61 7.649-7.61 13.053v90c0 5.404 2.907 10.391 7.609 13.053zm22.391-76.56 30.846 18.507-30.846 18.507z" fill="url(#SVGID_1_)"/></g></g></svg>