<svg width="48" height="48" viewBox="0 0 48 48" fill="none" xmlns="http://www.w3.org/2000/svg">
<rect width="48" height="48" rx="6" fill="#CFEBFF"/>
<path d="M22.9453 21.8906C22.9453 17.8202 19.633 14.5078 15.5625 14.5078C11.492 14.5078 8.17969 17.8202 8.17969 21.8906C8.17969 25.9611 11.492 29.2734 15.5625 29.2734C19.633 29.2734 22.9453 25.9611 22.9453 21.8906ZM15.5625 27.1641C12.6549 27.1641 10.2891 24.7983 10.2891 21.8906C10.2891 18.983 12.6549 16.6172 15.5625 16.6172C18.4701 16.6172 20.8359 18.983 20.8359 21.8906C20.8359 24.7983 18.4701 27.1641 15.5625 27.1641ZM15.5625 29.2734C10.3282 29.2734 6 33.5314 6 38.7656V40.9453C6 41.5283 6.54204 42 7.125 42H24C24.583 42 25.0547 41.5283 25.0547 40.9453V38.7656C25.0547 33.5314 20.7968 29.2734 15.5625 29.2734ZM22.9453 39.8906H8.17969V38.7656C8.17969 34.6952 11.492 31.3828 15.5625 31.3828C19.633 31.3828 22.9453 34.6952 22.9453 38.7656V39.8906ZM32.4375 20.7656C27.2032 20.7656 22.9453 25.0235 22.9453 30.2578V32.4375C22.9453 33.0205 23.417 33.4922 24 33.4922H40.875C41.458 33.4922 42 33.0205 42 32.4375V30.2578C42 25.0235 37.6718 20.7656 32.4375 20.7656ZM39.8203 31.3828H25.0547V30.2578C25.0547 26.1874 28.367 22.875 32.4375 22.875C36.508 22.875 39.8203 26.1874 39.8203 30.2578V31.3828ZM39.8203 13.3828C39.8203 9.31235 36.508 6 32.4375 6C28.367 6 25.0547 9.31235 25.0547 13.3828C25.0547 17.4533 28.367 20.7656 32.4375 20.7656C36.508 20.7656 39.8203 17.4533 39.8203 13.3828ZM32.4375 18.6562C29.5299 18.6562 27.1641 16.2904 27.1641 13.3828C27.1641 10.4752 29.5299 8.10938 32.4375 8.10938C35.3451 8.10938 37.7109 10.4752 37.7109 13.3828C37.7109 16.2904 35.3451 18.6562 32.4375 18.6562Z" fill="url(#paint0_linear)"/>
<defs>
<linearGradient id="paint0_linear" x1="24" y1="42" x2="24" y2="6" gradientUnits="userSpaceOnUse">
<stop stop-color="#1F93FF"/>
<stop offset="1" stop-color="#00C0FF"/>
</linearGradient>
</defs>
</svg>
