<svg id="Capa_1" enable-background="new 0 0 512 512" height="512" viewBox="0 0 512 512" width="512" xmlns="http://www.w3.org/2000/svg" xmlns:xlink="http://www.w3.org/1999/xlink"><linearGradient id="SVGID_1_" gradientUnits="userSpaceOnUse" x1="256" x2="256" y1="466" y2="46"><stop offset="0" stop-color="#fd3a84"/><stop offset="1" stop-color="#ffa68d"/></linearGradient><g><g><path d="m454.419 267.334c17.389-27.851 25.581-55.003 25.581-84.234 0-36.164-13.951-70.393-39.284-96.383-25.593-26.257-59.586-40.717-95.716-40.717-40.103 0-73.61 17.797-96.899 51.467-3.061 4.426-5.749 8.851-8.101 13.14-2.352-4.289-5.04-8.714-8.101-13.14-23.289-33.67-56.796-51.467-96.899-51.467-36.13 0-70.123 14.46-95.716 40.718-25.333 25.989-39.284 60.219-39.284 96.382 0 84.653 68.779 142.666 172.889 230.479 18.292 15.429 37.207 31.383 57.297 48.764 2.817 2.438 6.315 3.656 9.814 3.656s6.997-1.219 9.814-3.656c20.093-17.383 61.441-52.26 63.489-53.988 17.341 34.172 52.828 57.645 93.697 57.645 57.897 0 105-47.103 105-105 0-40.844-23.444-76.313-57.581-93.666zm-152.419 93.666c0 5.624.45 11.145 1.305 16.531-5.08 4.296-10.254 8.66-15.531 13.111-15.366 12.961-31.17 26.291-47.775 40.554-16.603-14.261-32.404-27.589-47.769-40.549-51.258-43.235-91.745-77.384-120.127-110.766-29.118-34.247-42.103-64.095-42.103-96.781 0-59.055 47.103-107.1 105-107.1 29.93 0 54.052 12.709 71.696 37.774 13.946 19.811 18.608 40.241 18.645 40.403 1.495 6.9 7.6 11.824 14.66 11.824s13.165-4.923 14.66-11.823c.042-.196 4.623-20.137 18.115-39.644 17.683-25.57 41.984-38.534 72.224-38.534 57.897 0 105 48.045 105 107.1 0 25.391-7.979 49.253-25.001 74.449-5.85-1.015-11.863-1.549-17.999-1.549-57.897 0-105 47.103-105 105zm105 75c-41.355 0-75-33.645-75-75s33.645-75 75-75 75 33.645 75 75-33.645 75-75 75zm5.74-118.858c-5.606-2.322-12.058-1.038-16.347 3.251l-22.5 22.5c-5.858 5.858-5.858 15.355 0 21.213 4.908 4.908 12.37 5.704 18.106 2.388v24.506c0 8.284 6.716 15 15 15s15-6.716 15-15v-60c.001-6.067-3.654-11.537-9.259-13.858z" fill="url(#SVGID_1_)"/></g></g></svg>