<svg width="148" height="148" viewBox="0 0 148 148" fill="none" xmlns="http://www.w3.org/2000/svg">
<g clip-path="url(#clip0)">
<path d="M147.696 118.468L138.554 77.2427C135.944 62.7954 123.399 52.3203 108.688 52.3203C103.88 52.3203 99.2797 53.413 95.0151 55.5679C89.3903 58.4103 83.7986 60.1412 78.3359 60.7456V47.9844C78.3359 45.5935 80.281 43.6484 82.6719 43.6484H100.016C107.188 43.6484 113.023 37.8131 113.023 30.6406C113.023 23.4681 107.188 17.6328 100.016 17.6328H47.9844C45.5935 17.6328 43.6484 15.6877 43.6484 13.2969C43.6484 10.9023 41.7071 8.96094 39.3125 8.96094C36.9179 8.96094 34.9766 10.9023 34.9766 13.2969C34.9766 20.4694 40.8119 26.3047 47.9844 26.3047H100.016C102.406 26.3047 104.352 28.2498 104.352 30.6406C104.352 33.0315 102.406 34.9766 100.016 34.9766H82.6719C75.4994 34.9766 69.6641 40.8119 69.6641 47.9844V60.7453C64.2014 60.1409 58.6094 58.41 52.984 55.5674C48.7195 53.413 44.1196 52.3203 39.3125 52.3203C24.6012 52.3203 12.0559 62.7954 9.44598 77.2427L0.303516 118.468C0.161875 119.103 0 120.411 0 121.695C0 131.259 7.78041 139.039 17.3438 139.039C24.9548 139.039 25.9887 137.29 47.6768 118.085C50.0136 120.319 53.1762 121.695 56.6562 121.695C62.3089 121.695 67.1284 118.07 68.9183 113.023H79.082C80.8719 118.07 85.6914 121.695 91.344 121.695C94.8241 121.695 97.9867 120.319 100.323 118.085C122.007 137.287 123.019 139.039 130.656 139.039C140.22 139.039 148 131.259 148 121.695C148 120.466 147.846 119.139 147.696 118.468ZM60.9922 108.689C60.9913 111.079 59.0468 113.023 56.6562 113.023C54.2654 113.023 52.3203 111.078 52.3203 108.688C52.3203 106.297 54.2654 104.352 56.6562 104.352C59.0465 104.352 60.9913 106.296 60.9922 108.686V108.688C60.9922 108.688 60.9922 108.688 60.9922 108.689ZM91.3438 113.023C88.9535 113.023 87.0087 111.079 87.0078 108.689C87.0078 108.688 87.0078 108.688 87.0078 108.688C87.0078 108.687 87.0078 108.687 87.0078 108.686C87.0087 106.296 88.9532 104.352 91.3438 104.352C93.7346 104.352 95.6797 106.297 95.6797 108.688C95.6797 111.078 93.7346 113.023 91.3438 113.023ZM130.656 130.367C126.636 130.367 127.15 130.219 104.285 110.012C104.329 109.577 104.352 109.135 104.352 108.688C104.352 101.515 98.5163 95.6797 91.3438 95.6797C85.6911 95.6797 80.8716 99.3051 79.0817 104.352H68.9183C67.1284 99.3051 62.3089 95.6797 56.6562 95.6797C49.4837 95.6797 43.6484 101.515 43.6484 108.688C43.6484 109.134 43.6713 109.576 43.7155 110.012C20.9582 130.119 21.3739 130.367 17.3438 130.367C12.5621 130.367 8.67188 126.477 8.67188 121.695C8.67188 121.208 8.71234 120.721 8.79184 120.246C8.79184 120.246 17.9569 78.9126 17.9675 78.8519C19.8045 68.5032 28.7814 60.9922 39.3125 60.9922C42.7486 60.9922 46.0326 61.7712 49.0733 63.3076C57.4208 67.5256 65.8074 69.6641 74 69.6641H74.0003C82.1932 69.6641 90.5795 67.5256 98.9264 63.3079C101.967 61.7712 105.251 60.9922 108.688 60.9922C119.219 60.9922 128.195 68.5032 130.032 78.8522C130.043 78.9126 130.055 78.973 130.069 79.0331L139.208 120.246C139.288 120.721 139.328 121.208 139.328 121.695C139.328 126.477 135.438 130.367 130.656 130.367ZM47.9844 78.3359H43.6484V74C43.6484 71.6054 41.7071 69.6641 39.3125 69.6641C36.9179 69.6641 34.9766 71.6054 34.9766 74V78.3359H30.6406C28.246 78.3359 26.3047 80.2773 26.3047 82.6719C26.3047 85.0665 28.246 87.0078 30.6406 87.0078H34.9766V91.3438C34.9766 93.7383 36.9179 95.6797 39.3125 95.6797C41.7071 95.6797 43.6484 93.7383 43.6484 91.3438V87.0078H47.9844C50.379 87.0078 52.3203 85.0665 52.3203 82.6719C52.3203 80.2773 50.379 78.3359 47.9844 78.3359ZM117.359 78.3359H113.023V74C113.023 71.6054 111.082 69.6641 108.688 69.6641C106.293 69.6641 104.352 71.6054 104.352 74V78.3359H100.016C97.621 78.3359 95.6797 80.2773 95.6797 82.6719C95.6797 85.0665 97.621 87.0078 100.016 87.0078H104.352V91.3438C104.352 93.7383 106.293 95.6797 108.688 95.6797C111.082 95.6797 113.023 93.7383 113.023 91.3438V87.0078H117.359C119.754 87.0078 121.695 85.0665 121.695 82.6719C121.695 80.2773 119.754 78.3359 117.359 78.3359ZM65.3281 78.3359C62.9335 78.3359 60.9922 80.2773 60.9922 82.6719C60.9922 85.0665 62.9335 87.0078 65.3281 87.0078C67.7227 87.0078 69.6641 85.0665 69.6641 82.6719C69.6641 80.2773 67.7227 78.3359 65.3281 78.3359ZM82.6719 78.3359C80.2773 78.3359 78.3359 80.2773 78.3359 82.6719C78.3359 85.0665 80.2773 87.0078 82.6719 87.0078C85.0665 87.0078 87.0078 85.0665 87.0078 82.6719C87.0078 80.2773 85.0665 78.3359 82.6719 78.3359Z" fill="url(#paint0_linear)"/>
</g>
<defs>
<linearGradient id="paint0_linear" x1="74" y1="139.039" x2="74" y2="8.96094" gradientUnits="userSpaceOnUse">
<stop stop-color="#37B889"/>
<stop offset="0.911458" stop-color="#7DFA82"/>
</linearGradient>
<clipPath id="clip0">
<rect width="148" height="148" fill="white"/>
</clipPath>
</defs>
</svg>
