<svg width="48" height="48" viewBox="0 0 48 48" fill="none" xmlns="http://www.w3.org/2000/svg">
<rect width="48" height="48" rx="6" fill="#CEFFD0"/>
<g clip-path="url(#clip0)">
<path d="M41.9262 34.8165L39.7024 24.7888C39.0675 21.2745 36.0159 18.7266 32.4375 18.7266C31.2681 18.7266 30.1491 18.9923 29.1118 19.5165C27.7436 20.2079 26.3835 20.6289 25.0547 20.776V17.6719C25.0547 17.0903 25.5278 16.6172 26.1094 16.6172H30.3281C32.0728 16.6172 33.4922 15.1978 33.4922 13.4531C33.4922 11.7085 32.0728 10.2891 30.3281 10.2891H17.6719C17.0903 10.2891 16.6172 9.81593 16.6172 9.23438C16.6172 8.65191 16.145 8.17969 15.5625 8.17969C14.98 8.17969 14.5078 8.65191 14.5078 9.23438C14.5078 10.979 15.9272 12.3984 17.6719 12.3984H30.3281C30.9097 12.3984 31.3828 12.8716 31.3828 13.4531C31.3828 14.0347 30.9097 14.5078 30.3281 14.5078H26.1094C24.3647 14.5078 22.9453 15.9272 22.9453 17.6719V20.7759C21.6165 20.6289 20.2564 20.2078 18.888 19.5164C17.8507 18.9923 16.7318 18.7266 15.5625 18.7266C11.9841 18.7266 8.93252 21.2745 8.29767 24.7888L6.07383 34.8165C6.03937 34.971 6 35.2892 6 35.6016C6 37.9278 7.89253 39.8203 10.2188 39.8203C12.0701 39.8203 12.3216 39.3949 17.5971 34.7235C18.1655 35.2668 18.9348 35.6016 19.7812 35.6016C21.1562 35.6016 22.3285 34.7197 22.7639 33.4922H25.2362C25.6715 34.7197 26.8439 35.6016 28.2188 35.6016C29.0653 35.6016 29.8346 35.2668 30.403 34.7235C35.6775 39.3942 35.9235 39.8203 37.7812 39.8203C40.1075 39.8203 42 37.9278 42 35.6016C42 35.3026 41.9626 34.9798 41.9262 34.8165ZM20.8359 32.4379C20.8357 33.0193 20.3627 33.4922 19.7812 33.4922C19.1997 33.4922 18.7266 33.0191 18.7266 32.4375C18.7266 31.8559 19.1997 31.3828 19.7812 31.3828C20.3627 31.3828 20.8357 31.8558 20.8359 32.4371V32.4375C20.8359 32.4375 20.8359 32.4377 20.8359 32.4379ZM28.2188 33.4922C27.6373 33.4922 27.1643 33.0192 27.1641 32.4379C27.1641 32.4377 27.1641 32.4376 27.1641 32.4375C27.1641 32.4374 27.1641 32.4373 27.1641 32.4371C27.1643 31.8557 27.6373 31.3828 28.2188 31.3828C28.8003 31.3828 29.2734 31.8559 29.2734 32.4375C29.2734 33.0191 28.8003 33.4922 28.2188 33.4922ZM37.7812 37.7109C36.8033 37.7109 36.9285 37.6748 31.3665 32.7597C31.3773 32.6538 31.3828 32.5463 31.3828 32.4375C31.3828 30.6928 29.9634 29.2734 28.2188 29.2734C26.8438 29.2734 25.6715 30.1553 25.2361 31.3828H22.7639C22.3285 30.1553 21.1562 29.2734 19.7812 29.2734C18.0366 29.2734 16.6172 30.6928 16.6172 32.4375C16.6172 32.5462 16.6227 32.6537 16.6335 32.7597C11.0979 37.6507 11.199 37.7109 10.2188 37.7109C9.05564 37.7109 8.10938 36.7647 8.10938 35.6016C8.10938 35.4831 8.11922 35.3646 8.13855 35.2489C8.13855 35.2489 10.3679 25.195 10.3705 25.1802C10.8173 22.6629 13.0009 20.8359 15.5625 20.8359C16.3983 20.8359 17.1971 21.0254 17.9367 21.3991C19.9672 22.4251 22.0072 22.9453 24 22.9453H24.0001C25.9929 22.9453 28.0328 22.4251 30.0632 21.3992C30.8027 21.0254 31.6016 20.8359 32.4375 20.8359C34.9991 20.8359 37.1827 22.6629 37.6295 25.1803C37.6321 25.195 37.6351 25.2097 37.6383 25.2243L39.8614 35.249C39.8808 35.3646 39.8906 35.4831 39.8906 35.6016C39.8906 36.7647 38.9444 37.7109 37.7812 37.7109ZM17.6719 25.0547H16.6172V24C16.6172 23.4175 16.145 22.9453 15.5625 22.9453C14.98 22.9453 14.5078 23.4175 14.5078 24V25.0547H13.4531C12.8707 25.0547 12.3984 25.5269 12.3984 26.1094C12.3984 26.6918 12.8707 27.1641 13.4531 27.1641H14.5078V28.2188C14.5078 28.8012 14.98 29.2734 15.5625 29.2734C16.145 29.2734 16.6172 28.8012 16.6172 28.2188V27.1641H17.6719C18.2543 27.1641 18.7266 26.6918 18.7266 26.1094C18.7266 25.5269 18.2543 25.0547 17.6719 25.0547ZM34.5469 25.0547H33.4922V24C33.4922 23.4175 33.02 22.9453 32.4375 22.9453C31.855 22.9453 31.3828 23.4175 31.3828 24V25.0547H30.3281C29.7457 25.0547 29.2734 25.5269 29.2734 26.1094C29.2734 26.6918 29.7457 27.1641 30.3281 27.1641H31.3828V28.2188C31.3828 28.8012 31.855 29.2734 32.4375 29.2734C33.02 29.2734 33.4922 28.8012 33.4922 28.2188V27.1641H34.5469C35.1293 27.1641 35.6016 26.6918 35.6016 26.1094C35.6016 25.5269 35.1293 25.0547 34.5469 25.0547ZM21.8906 25.0547C21.3082 25.0547 20.8359 25.5269 20.8359 26.1094C20.8359 26.6918 21.3082 27.1641 21.8906 27.1641C22.4731 27.1641 22.9453 26.6918 22.9453 26.1094C22.9453 25.5269 22.4731 25.0547 21.8906 25.0547ZM26.1094 25.0547C25.5269 25.0547 25.0547 25.5269 25.0547 26.1094C25.0547 26.6918 25.5269 27.1641 26.1094 27.1641C26.6918 27.1641 27.1641 26.6918 27.1641 26.1094C27.1641 25.5269 26.6918 25.0547 26.1094 25.0547Z" fill="url(#paint0_linear)"/>
</g>
<defs>
<linearGradient id="paint0_linear" x1="24" y1="39.8203" x2="24" y2="8.17969" gradientUnits="userSpaceOnUse">
<stop stop-color="#37B889"/>
<stop offset="0.911458" stop-color="#7DFA82"/>
</linearGradient>
<clipPath id="clip0">
<rect width="36" height="36" fill="white" transform="translate(6 6)"/>
</clipPath>
</defs>
</svg>
