<svg width="226" height="197" viewBox="0 0 226 197" fill="none" xmlns="http://www.w3.org/2000/svg">
<path d="M50.879 89.879C50.3222 90.4369 50 91.2109 50 92C50 92.7891 50.321 93.563 50.879 94.1209C51.4369 94.6789 52.212 94.9999 53 94.9999C53.789 94.9999 54.563 94.6789 55.1221 94.1209C55.6789 93.563 56.0011 92.7891 56.0011 92C56.0011 91.2109 55.6801 90.4369 55.1221 89.879C54.563 89.321 53.789 89 53 89C52.212 89 51.4369 89.321 50.879 89.879Z" fill="url(#paint0_linear)"/>
<path d="M219.908 95.6423C219.908 95.6423 225.143 78.0173 225.143 64.3066C225.143 47.3439 218.6 31.2888 206.717 19.0983C194.713 6.78245 178.769 0 161.822 0C143.012 0 127.295 8.34766 116.371 24.1405C114.936 26.2165 113.675 28.2921 112.572 30.3038C111.468 28.2921 110.208 26.2165 108.772 24.1405C97.8483 8.34766 82.1318 0 63.3216 0C46.3748 0 30.4305 6.78245 18.4261 19.0987C6.5437 31.2888 0 47.3444 0 64.3066C0 104.013 32.2607 131.224 81.0934 172.412C89.6732 179.649 98.5453 187.133 107.968 195.285C109.29 196.429 110.93 197 112.572 197C114.213 197 115.854 196.428 117.175 195.285C126.6 187.132 145.994 170.773 146.954 169.962L189.539 133.471L201.756 120.775L211.072 111.001L213.5 108L216 104L218 100L219.908 95.6423ZM152.19 147.75C141.369 157.526 150.794 147.75 139.973 157.526C137.59 159.541 137.455 159.566 134.98 161.654C127.773 167.733 120.36 173.986 112.571 180.676C104.784 173.987 97.3722 167.735 90.1652 161.656C66.1227 141.377 47.1324 125.359 33.8198 109.702C20.1621 93.6381 14.0715 79.6379 14.0715 64.3066C14.0715 36.6069 36.1651 14.0715 63.3216 14.0715C77.3602 14.0715 88.6746 20.0326 96.9505 31.7893C103.492 41.0816 105.679 50.6643 105.696 50.7403C106.397 53.9767 109.261 56.2863 112.572 56.2863C115.884 56.2863 118.747 53.9772 119.448 50.7408C119.468 50.6488 121.617 41.2955 127.945 32.1458C136.239 20.1522 147.638 14.0715 161.822 14.0715C188.978 14.0715 211.072 36.6069 211.072 64.3066C211.072 76.2162 208.726 87.4086 200.741 99.2268C182.907 124.265 175.577 125.094 152.19 147.75Z" fill="url(#paint1_linear)"/>
<path d="M168.018 115.528C167.603 114.959 166.914 114.654 166.215 114.729C158.424 115.556 150.938 118.406 144.568 122.971C143.399 123.808 142.277 124.702 141.199 125.642L153.656 97.8467C158.154 99.7896 163.295 99.8368 167.804 97.9659C168.8 97.5536 169.264 96.4157 168.841 95.4242C168.419 94.4332 167.27 93.9638 166.276 94.3764C162.632 95.8871 158.635 95.8272 155.02 94.207L153.345 93.4564L157.098 85.0827C158.229 82.5594 159.888 80.434 161.885 78.7689C161.978 78.7047 162.065 78.6326 162.144 78.554C166.733 74.8749 173.033 73.5878 178.911 75.495L174.809 84.6489C174.37 85.6269 174.816 86.7792 175.803 87.2217C176.79 87.6642 177.947 87.2298 178.385 86.2517L183.324 75.2306C183.763 74.2519 183.318 73.1004 182.33 72.6579C180.817 71.9796 179.266 71.4874 177.706 71.1696C177.924 64.9596 176.05 58.8315 172.342 53.7354C171.929 53.1691 171.247 52.8632 170.551 52.9327C164.263 53.5573 158.432 56.246 153.939 60.5574C152.649 59.5963 151.251 58.771 149.764 58.1043C148.776 57.6615 147.62 58.0955 147.182 59.0743L141.42 71.9301C137.41 80.8773 141.113 91.5125 149.852 96.1403C149.892 96.1611 149.931 96.1806 149.971 96.1984L149.973 96.1993L150.079 96.2467L136.821 125.642L133.824 131.433L132.824 133.933L132.324 134.933L131.324 137.433L130.074 142.7C130.28 142.988 130.556 143.21 130.87 143.351C131.178 143.489 131.523 143.548 131.871 143.514C131.874 143.513 131.878 143.512 131.883 143.511L131.886 143.512C139.677 142.685 147.162 139.834 153.532 135.269C159.904 130.704 164.982 124.551 168.218 117.476C168.509 116.841 168.432 116.097 168.018 115.528ZM169.829 56.9416C172.538 61.0559 173.915 65.8613 173.8 70.7351C169.738 70.6513 165.751 71.7025 162.299 73.7177C161.736 70.9532 160.638 68.3068 159.05 65.9314C158.395 64.9525 157.663 64.0342 156.865 63.1793C160.431 59.8366 164.942 57.6591 169.829 56.9416ZM144.995 73.5326L149.921 62.5426C150.916 63.1226 151.842 63.7886 152.693 64.5283C152.725 64.5616 152.757 64.5959 152.792 64.6271C152.836 64.6667 152.881 64.7036 152.927 64.7383C156.216 67.7012 158.314 71.7943 158.742 76.3125C156.58 78.2562 154.782 80.6661 153.521 83.4796L149.884 91.5955C144.27 87.5215 142.108 79.975 144.995 73.5326ZM151.229 132.109C146.43 135.548 140.94 137.922 135.174 139.075C135.186 139.048 135.201 139.024 135.214 138.997L135.256 138.902C138.161 133.901 142.122 129.534 146.87 126.13C151.676 122.686 157.174 120.31 162.949 119.16C160.035 124.235 156.035 128.666 151.229 132.109Z" fill="url(#paint2_linear)"/>
<path d="M57.7863 115.528C58.2012 114.959 58.8899 114.654 59.5893 114.729C67.3803 115.556 74.8658 118.406 81.2364 122.971C82.4046 123.808 83.5272 124.702 84.605 125.642L72.1477 97.8467C67.6502 99.7896 62.5087 99.8368 57.9996 97.9659C57.0044 97.5536 56.5404 96.4157 56.9633 95.4242C57.3848 94.4332 58.5338 93.9638 59.5283 94.3764C63.1715 95.8871 67.1686 95.8272 70.7838 94.207L72.4585 93.4564L68.7056 85.0827C67.5747 82.5594 65.9161 80.434 63.9191 78.7689C63.826 78.7047 63.7393 78.6326 63.6598 78.554C59.0707 74.8749 52.7713 73.5878 46.8926 75.495L50.9952 84.6489C51.4335 85.6269 50.9882 86.7792 50.001 87.2217C49.0137 87.6642 47.8573 87.2298 47.4189 86.2517L42.4795 75.2306C42.0408 74.2519 42.4864 73.1004 43.4737 72.6579C44.987 71.9796 46.5377 71.4874 48.0981 71.1696C47.88 64.9596 49.7539 58.8315 53.4624 53.7354C53.8745 53.1691 54.557 52.8632 55.2533 52.9327C61.5406 53.5573 67.3719 56.246 71.8652 60.5574C73.1547 59.5963 74.5528 58.771 76.0404 58.1043C77.0284 57.6615 78.1838 58.0955 78.6224 59.0743L84.3842 71.9301C88.3941 80.8773 84.6909 91.5125 75.9516 96.1403C75.9125 96.1611 75.8727 96.1806 75.8331 96.1984L75.831 96.1993L75.7252 96.2467L88.983 125.642L91.9795 131.433L92.9795 133.933L93.4795 134.933L94.4795 137.433L95.7301 142.7C95.5243 142.988 95.2476 143.21 94.9338 143.351C94.6256 143.489 94.2812 143.548 93.9332 143.514C93.9298 143.513 93.9258 143.512 93.9214 143.511L93.9183 143.512C86.1273 142.685 78.6418 139.834 72.2718 135.269C65.9002 130.704 60.8224 124.551 57.5857 117.476C57.2951 116.841 57.3717 116.097 57.7863 115.528ZM55.9746 56.9416C53.2658 61.0559 51.8885 65.8613 52.0041 70.7351C56.0657 70.6513 60.0527 71.7025 63.505 73.7177C64.0683 70.9532 65.1657 68.3068 66.7539 65.9314C67.4089 64.9525 68.1412 64.0342 68.9386 63.1793C65.3734 59.8366 60.8615 57.6591 55.9746 56.9416ZM80.8086 73.5326L75.8831 62.5426C74.8881 63.1226 73.9617 63.7886 73.1109 64.5283C73.079 64.5616 73.0468 64.5959 73.0123 64.6271C72.9682 64.6667 72.9229 64.7036 72.8767 64.7383C69.5883 67.7012 67.4899 71.7943 67.0618 76.3125C69.2238 78.2562 71.0216 80.6661 72.2826 83.4796L75.9199 91.5955C81.5344 87.5215 83.696 79.975 80.8086 73.5326ZM74.5752 132.109C79.3744 135.548 84.8642 137.922 90.6305 139.075C90.6177 139.048 90.6025 139.024 90.5904 138.997L90.5481 138.902C87.643 133.901 83.6822 129.534 78.9335 126.13C74.128 122.686 68.6298 120.31 62.8553 119.16C65.7685 124.235 69.7694 128.666 74.5752 132.109Z" fill="url(#paint3_linear)"/>
<path d="M170.879 89.879C170.322 90.4369 170 91.2109 170 92C170 92.7891 170.321 93.563 170.879 94.1209C171.437 94.6789 172.212 94.9999 173 94.9999C173.789 94.9999 174.563 94.6789 175.122 94.1209C175.679 93.563 176.001 92.7891 176.001 92C176.001 91.2109 175.68 90.4369 175.122 89.879C174.563 89.321 173.789 89 173 89C172.212 89 171.437 89.321 170.879 89.879Z" fill="url(#paint4_linear)"/>
<path d="M135.999 122.189C135.374 121.829 134.606 121.832 133.984 122.197C127.069 126.257 121.283 132.092 117.253 139.068C116.42 140.509 115.671 141.993 115.001 143.507V111.616C125.061 111.483 133.204 103.264 133.204 93.1785V77.8511C133.204 76.7461 132.308 75.8512 131.203 75.8512C129.508 75.8512 127.858 76.0418 126.271 76.4006C123.881 70.4699 119.576 65.498 113.99 62.2685C113.369 61.9105 112.606 61.9105 111.986 62.2685C106.387 65.5058 102.076 70.4909 99.6889 76.4379C98.0856 76.0776 96.4387 75.8908 94.7732 75.8908C93.6682 75.8908 92.772 76.7858 92.772 77.8908V92.405C92.772 102.508 100.665 110.946 110.743 111.615C110.788 111.618 110.833 111.619 110.878 111.619H110.88H110.998V143.507C110.328 141.993 109.579 140.509 108.746 139.068C104.715 132.092 98.9297 126.257 92.0151 122.196C91.3937 121.831 90.6244 121.828 90.0007 122.188C89.3769 122.548 88.9946 123.216 89.0001 123.936C89.0616 131.951 91.224 139.876 95.2544 146.852C99.2856 153.829 105.071 159.664 111.986 163.725C112.299 163.908 112.649 164 113 164C113.345 164 113.691 163.911 114 163.732C114.003 163.73 114.006 163.728 114.01 163.726L114.013 163.725C120.929 159.664 126.714 153.829 130.745 146.852C134.775 139.876 136.938 131.951 137 123.936C137.005 123.216 136.622 122.548 135.999 122.189ZM129.201 93.1785C129.201 101.141 122.719 107.62 114.751 107.62H112.877V98.1652C112.877 95.3162 113.535 92.6198 114.701 90.212C114.761 90.1132 114.811 90.0089 114.853 89.9007C117.593 84.5086 122.925 80.6433 129.202 79.9593L129.201 93.1785ZM112.987 66.3423C117.231 69.0692 120.522 73.0068 122.45 77.6379C118.629 79.2706 115.353 81.939 112.977 85.2884C111.297 82.9265 109.169 80.9009 106.697 79.3367C105.678 78.6924 104.612 78.1375 103.511 77.6698C105.438 73.0247 108.733 69.0762 112.987 66.3423ZM96.7736 92.4058L96.7744 79.9974C97.9439 80.1235 99.0855 80.3593 100.187 80.6962C100.231 80.7141 100.275 80.7328 100.32 80.7476C100.377 80.7663 100.435 80.7818 100.493 80.795C104.795 82.195 108.459 85.1592 110.746 89.2268C109.543 91.9653 108.874 94.9886 108.874 98.1652V107.328C101.94 105.864 96.7736 99.6796 96.7736 92.4058ZM98.7203 144.852C95.6803 139.59 93.8021 133.739 93.2065 127.739C98.1074 131.254 102.239 135.805 105.279 141.068C108.32 146.331 110.198 152.182 110.793 158.181C105.892 154.666 101.76 150.115 98.7203 144.852ZM127.278 144.852C124.238 150.115 120.107 154.666 115.206 158.181C115.801 152.182 117.679 146.331 120.719 141.068C123.759 135.805 127.891 131.254 132.792 127.739C132.196 133.739 130.318 139.59 127.278 144.852Z" fill="url(#paint5_linear)"/>
<defs>
<linearGradient id="paint0_linear" x1="53.0005" y1="89" x2="53.0005" y2="94.9999" gradientUnits="userSpaceOnUse">
<stop stop-color="#DB9EA5"/>
<stop offset="1" stop-color="#CF9CAC"/>
</linearGradient>
<linearGradient id="paint1_linear" x1="115.888" y1="205.378" x2="115.888" y2="8.37729" gradientUnits="userSpaceOnUse">
<stop stop-color="#6282F2"/>
<stop offset="1" stop-color="#FFA68D"/>
</linearGradient>
<linearGradient id="paint2_linear" x1="173.147" y1="53.81" x2="132.657" y2="144.152" gradientUnits="userSpaceOnUse">
<stop stop-color="#FFA68D"/>
<stop offset="0.645833" stop-color="#828ADE"/>
</linearGradient>
<linearGradient id="paint3_linear" x1="52.6573" y1="53.81" x2="93.1467" y2="144.152" gradientUnits="userSpaceOnUse">
<stop stop-color="#FFA68D"/>
<stop offset="1" stop-color="#7E89E0"/>
</linearGradient>
<linearGradient id="paint4_linear" x1="173.001" y1="89" x2="173.001" y2="94.9999" gradientUnits="userSpaceOnUse">
<stop stop-color="#DC9EA4"/>
<stop offset="1" stop-color="#CB9BAF"/>
</linearGradient>
<linearGradient id="paint5_linear" x1="113" y1="62" x2="113" y2="164" gradientUnits="userSpaceOnUse">
<stop stop-color="#FF9980"/>
<stop offset="1" stop-color="#5E81F4"/>
</linearGradient>
</defs>
</svg>
