<svg width="48" height="48" viewBox="0 0 48 48" fill="none" xmlns="http://www.w3.org/2000/svg">
<rect width="48" height="48" rx="6" fill="#DAD5FB"/>
<g clip-path="url(#clip0)">
<path d="M23.5 5C18.9768 5 15.2969 8.67992 15.2969 13.2031C15.2969 17.7263 18.9768 21.4062 23.5 21.4062C28.0232 21.4062 31.7031 17.7263 31.7031 13.2031C31.7031 8.67992 28.0232 5 23.5 5ZM23.5 19.3555C20.1076 19.3555 17.3477 16.5955 17.3477 13.2031C17.3477 9.81072 20.1076 7.05078 23.5 7.05078C26.8924 7.05078 29.6523 9.81072 29.6523 13.2031C29.6523 16.5955 26.8924 19.3555 23.5 19.3555Z" fill="url(#paint0_linear)"/>
<path d="M38.8809 38.9746C38.8809 30.4857 32.0135 23.457 23.5 23.457C14.9842 23.457 8.11914 30.4883 8.11914 38.9746C8.11914 39.5409 8.57824 40 9.14453 40H37.8555C38.4218 40 38.8809 39.5409 38.8809 38.9746ZM10.2082 37.9492C10.7284 31.0008 16.4912 25.5078 23.5 25.5078C30.5088 25.5078 36.2716 31.0008 36.7918 37.9492H10.2082Z" fill="url(#paint1_linear)"/>
<path d="M186 261C186 203.109 138.891 156 81 156C23.109 156 -24 203.109 -24 261C-24 318.891 23.109 366 81 366C138.891 366 186 318.891 186 261ZM81 336C39.647 336 6 302.353 6 261C6 219.647 39.647 186 81 186C122.353 186 156 219.647 156 261C156 302.353 122.353 336 81 336ZM81 366C6.557 366 -55 426.557 -55 501V532C-55 540.291 -47.291 547 -39 547H201C209.291 547 216 540.291 216 532V501C216 426.557 155.443 366 81 366ZM186 517H-24V501C-24 443.109 23.109 396 81 396C138.891 396 186 443.109 186 501V517ZM321 245C246.557 245 186 305.557 186 380V411C186 419.291 192.709 426 201 426H441C449.291 426 457 419.291 457 411V380C457 305.557 395.443 245 321 245ZM426 396H216V380C216 322.109 263.109 275 321 275C378.891 275 426 322.109 426 380V396ZM426 140C426 82.109 378.891 35 321 35C263.109 35 216 82.109 216 140C216 197.891 263.109 245 321 245C378.891 245 426 197.891 426 140ZM321 215C279.647 215 246 181.353 246 140C246 98.647 279.647 65 321 65C362.353 65 396 98.647 396 140C396 181.353 362.353 215 321 215Z" fill="url(#paint2_linear)"/>
</g>
<defs>
<linearGradient id="paint0_linear" x1="23.5" y1="39.2714" x2="23.5" y2="5.50025" gradientUnits="userSpaceOnUse">
<stop stop-color="#AD6CFF"/>
<stop offset="1" stop-color="#8D7BFF"/>
</linearGradient>
<linearGradient id="paint1_linear" x1="23.5" y1="39.2714" x2="23.5" y2="5.50025" gradientUnits="userSpaceOnUse">
<stop stop-color="#AC42FF"/>
<stop offset="0.598958" stop-color="#9479FF"/>
</linearGradient>
<linearGradient id="paint2_linear" x1="201" y1="547" x2="201" y2="35" gradientUnits="userSpaceOnUse">
<stop stop-color="#5558FF"/>
<stop offset="1" stop-color="#00C0FF"/>
</linearGradient>
<clipPath id="clip0">
<rect width="35" height="35" fill="white" transform="translate(6 5)"/>
</clipPath>
</defs>
</svg>


