<svg id="Capa_1" enable-background="new 0 0 512 512" height="512" viewBox="0 0 512 512" width="512" xmlns="http://www.w3.org/2000/svg" xmlns:xlink="http://www.w3.org/1999/xlink"><linearGradient id="SVGID_1_" gradientUnits="userSpaceOnUse" x1="256" x2="256" y1="436" y2="76"><stop offset="0" stop-color="#5558ff"/><stop offset="1" stop-color="#00c0ff"/></linearGradient><g><g><path d="m506.242 229.186c-3.633-2.843-8.375-3.856-12.852-2.745l-102.39 25.386v-40.827c0-8.284-6.716-15-15-15h-165v-60h60v15c0 8.284 6.716 15 15 15h120c24.813 0 45-20.187 45-45s-20.187-45-45-45h-120c-8.284 0-15 6.716-15 15v15h-136c-5.015 0-9.699 2.507-12.481 6.679l-60 90c-1.643 2.465-2.519 5.36-2.519 8.321v45h-30v-15c0-8.284-6.716-15-15-15s-15 6.716-15 15v120c0 8.284 6.716 15 15 15s15-6.716 15-15v-15h30v75c0 8.284 6.716 15 15 15h301c8.284 0 15-6.716 15-15v-40.827l102.391 25.386c4.393 1.089 9.149.152 12.852-2.745 3.635-2.843 5.758-7.2 5.758-11.814v-150c-.001-4.614-2.124-8.971-5.759-11.814zm-205.242-123.186h105c8.271 0 15 6.729 15 15s-6.729 15-15 15h-105zm-271 210v-30h211v30zm331 90h-271v-60h166c8.284 0 15-6.716 15-15v-60c0-8.284-6.716-15-15-15h-166v-40.458l53.028-79.542h37.972v75c0 8.284 6.716 15 15 15h165zm121-34.173-91-22.562v-66.53l91-22.562zm-166-85.827c8.284 0 15-6.716 15-15s-6.716-15-15-15-15 6.716-15 15 6.716 15 15 15zm0 60c8.284 0 15-6.716 15-15s-6.716-15-15-15-15 6.716-15 15 6.716 15 15 15z" fill="url(#SVGID_1_)"/></g></g></svg>