<svg id="Layer_1" enable-background="new 0 0 512 512" height="512" viewBox="0 0 512 512" width="512" xmlns="http://www.w3.org/2000/svg"><g><path d="m497 337.4h-24.1c-11.455 0-45.08 2.129-73.367 30.545v-65.816c55.92-7.491 96.4-55.75 96.4-110.396v-80.333c0-8.284-6.795-15-15.079-15-16.67 0-32.782 3.643-47.43 10.551l-38.284-38.29c-5.855-5.855-15.347-5.86-21.206-.009l-38.409 38.349c-14.389-6.792-30.453-10.601-47.392-10.601-8.284 0-15 6.716-15 15v80.333c0 56.955 42.346 103.18 96.4 110.399v98.026c-28.362-28.501-61.898-30.625-73.367-30.625h-24.1c-8.284 0-15 6.716-15 15v24.1c0 58.256 47.415 103.367 103.366 103.367h24.1c8.284 0 15-6.716 15-15v-17.133h9.1c55.558 0 103.368-44.964 103.368-103.367v-24.1c0-8.284-6.716-15-15-15zm-127.467 144.6h-9.1c-39.609 0-73.366-31.896-73.366-73.367v-9.1h9.1c39.535 0 73.367 32.043 73.367 73.367v9.1zm14.991-381.527 23.263 23.267c-1.937 1.69-3.828 3.448-5.663 5.283-6.936 6.936-12.844 14.63-17.646 22.896-6.183-10.619-14.078-20.121-23.293-28.144zm.009 172.661c-44.936 0-81.4-36.257-81.4-81.4v-63.948c37.744 7.06 66.4 40.253 66.4 80.015 0 8.284 6.716 15 15 15s15-6.716 15-15c0-.004 0-.009 0-.013 0-.001 0-.002 0-.003 0-32.02 21.492-71.73 66.4-80.019v63.968c0 44.325-35.932 81.4-81.4 81.4zm97.467 103.366c0 41.31-33.821 73.367-73.367 73.367h-9.1v-9.1c0-41.347 33.639-73.367 73.367-73.367h9.1z"/><path d="m239.933 249.034h-24.1c-11.454 0-45.079 2.129-73.367 30.545v-41.716c55.918-7.491 96.4-55.748 96.4-110.395v-80.334c0-8.284-6.795-15-15.08-15-16.67 0-32.782 3.644-47.43 10.551l-38.283-38.29c-5.854-5.856-15.347-5.86-21.206-.01l-38.41 38.349c-14.387-6.792-30.451-10.6-47.39-10.6-8.284 0-15 6.716-15 15v80.333c0 57.002 42.389 103.186 96.4 110.399v73.926c-28.361-28.5-61.899-30.625-73.367-30.625h-24.1c-8.284 0-15 6.716-15 15v24.1c0 58.229 47.387 103.367 103.367 103.367h9.1v73.366c0 8.284 6.716 15 15 15s15-6.716 15-15v-88.367-17.133h9.1c55.69 0 103.366-45.08 103.366-103.367v-24.1c0-8.283-6.715-14.999-15-14.999zm-127.466 144.6h-9.1c-39.609 0-73.367-31.896-73.367-73.367v-9.1h9.1c39.535 0 73.367 32.043 73.367 73.367zm14.991-357.428 23.263 23.267c-1.937 1.69-3.828 3.448-5.664 5.284-6.936 6.936-12.843 14.63-17.646 22.896-6.183-10.62-14.078-20.121-23.293-28.144zm.009 172.661c-44.937 0-81.4-36.257-81.4-81.4v-63.948c37.744 7.06 66.4 40.253 66.4 80.015 0 8.284 6.716 15 15 15s15-6.716 15-15c0-.004 0-.009 0-.013 0-.001 0-.002 0-.003 0-38.425 27.257-72.793 66.4-80.019v63.969c0 44.322-35.931 81.399-81.4 81.399zm97.466 79.267c0 41.309-33.82 73.367-73.366 73.367h-9.1v-9.1c0-41.337 33.629-73.367 73.367-73.367h9.1v9.1z"/></g></svg>