<svg height="512pt" viewBox="-2 0 512 512.00204" width="512pt" xmlns="http://www.w3.org/2000/svg"><path d="m503.253906 302.125c-3.132812-1.808594-6.988281-1.792969-10.105468.039062-34.691407 20.382813-63.714844 49.667969-83.933594 84.6875-4.175782 7.234376-7.933594 14.679688-11.296875 22.28125v-160.078124c50.464843-.671876 91.316406-41.925782 91.316406-92.550782v-76.9375c0-5.546875-4.496094-10.039062-10.039063-10.039062-8.5 0-16.777343.957031-24.738281 2.757812-11.992187-29.769531-33.589843-54.726562-61.609375-70.9375-3.113281-1.796875-6.945312-1.796875-10.054687 0-28.085938 16.25-49.714844 41.273438-61.6875 71.125-8.042969-1.808594-16.304688-2.746094-24.660157-2.746094-5.542968 0-10.039062 4.492188-10.039062 10.039063v72.855469c0 50.710937 39.597656 93.066406 90.152344 96.425781.226562.015625.453125.023437.675781.023437h.011719.59375v160.0625c-3.363282-7.601562-7.121094-15.046874-11.300782-22.28125-20.21875-35.019531-49.242187-64.308593-83.929687-84.691406-3.117187-1.832031-6.976563-1.847656-10.105469-.039062s-5.046875 5.160156-5.019531 8.773437c.308594 40.234375 11.15625 80.011719 31.375 115.03125 20.222656 35.019531 49.246094 64.308594 83.933594 84.691407 1.570312.921874 3.328125 1.382812 5.085937 1.382812 1.734375 0 3.46875-.449219 5.019532-1.34375.015624-.011719.03125-.023438.046874-.03125.007813-.003906.015626-.003906.019532-.007812 34.691406-20.382813 63.714844-49.671876 83.933594-84.691407s31.070312-74.796875 31.378906-115.03125c.023437-3.613281-1.894532-6.964843-5.023438-8.769531zm-34.101562-145.621094c0 39.96875-32.515625 72.488282-72.488282 72.488282h-9.402343v-47.457032c0-14.300781 3.300781-27.835937 9.152343-39.921875.300782-.496093.550782-1.019531.761719-1.5625 13.746094-27.066406 40.496094-46.46875 71.980469-49.902343v66.355468zm-81.335938-134.707031c21.289063 13.6875 37.796875 33.453125 47.46875 56.699219-19.167968 8.195312-35.601562 21.589844-47.519531 38.402344-8.425781-11.855469-19.101563-22.023438-31.503906-29.875-5.113281-3.234376-10.460938-6.019532-15.980469-8.367188 9.664062-23.316406 26.195312-43.136719 47.535156-56.859375zm-81.335937 130.828125.003906-62.285156c5.867187.632812 11.59375 1.816406 17.117187 3.507812.222657.089844.441407.183594.671876.257813.285156.09375.574218.171875.863281.238281 21.582031 7.027344 39.964843 21.90625 51.4375 42.324219-6.035157 13.746093-9.390625 28.921875-9.390625 44.867187v45.996094c-34.785156-7.351562-60.703125-38.394531-60.703125-74.90625zm9.765625 263.261719c-15.25-26.414063-24.671875-55.785157-27.660156-85.902344 24.585937 17.644531 45.3125 40.488281 60.5625 66.90625 15.253906 26.417969 24.675781 55.789063 27.660156 85.902344-24.585938-17.644531-45.3125-40.488281-60.5625-66.90625zm143.261718 0c-15.25 26.417969-35.976562 49.261719-60.5625 66.90625 2.984376-30.117188 12.40625-59.484375 27.660157-85.902344 15.25-26.417969 35.976562-49.261719 60.5625-66.90625-2.988281 30.117187-12.410157 59.488281-27.660157 85.902344zm0 0"/><path d="m235.773438 302.125c-3.132813-1.808594-6.992188-1.792969-10.105469.039062-34.691407 20.382813-63.714844 49.667969-83.933594 84.6875-3.707031 6.421876-7.082031 13.015626-10.152344 19.730469v-157.527343c25.097657-.34375 49.234375-10.996094 66.394531-29.363282 3.789063-4.050781 3.574219-10.402344-.480468-14.1875-4.046875-3.785156-10.402344-3.570312-14.1875.480469-13.867188 14.835937-32.679688 23.007813-52.976563 23.007813h-9.402343v-47.457032c0-14.300781 3.300781-27.839844 9.148437-39.921875.300781-.5.554687-1.023437.761719-1.5625 13.746094-27.070312 40.5-46.46875 71.980468-49.902343v51.878906c0 5.542968 4.496094 10.039062 10.039063 10.039062s10.039063-4.496094 10.039063-10.039062v-62.460938c0-5.546875-4.496094-10.039062-10.039063-10.039062-8.496094 0-16.777344.957031-24.738281 2.757812-11.992188-29.769531-33.59375-54.726562-61.609375-70.933594-3.113281-1.800781-6.945313-1.800781-10.054688 0-28.085937 16.246094-49.714843 41.269532-61.6875 71.121094-8.042969-1.808594-16.308593-2.746094-24.660156-2.746094-5.546875 0-10.039063 4.492188-10.039063 10.039063v72.859375c0 50.707031 39.597657 93.066406 90.152344 96.421875.226563.015625.453125.023437.675782.023437h.011718.59375v162.675782c-3.644531-8.515625-7.792968-16.832032-12.445312-24.894532-20.222656-35.019531-49.242188-64.304687-83.933594-84.6875-3.113281-1.832031-6.976562-1.847656-10.105469-.039062-3.128906 1.804688-5.0468748 5.15625-5.019531 8.769531.308594 40.234375 11.160156 80.011719 31.378906 115.035157 20.21875 35.019531 49.242188 64.304687 83.933594 84.6875 1.566406.925781 3.324219 1.386718 5.085938 1.386718 1.730468 0 3.464843-.449218 5.019531-1.347656.015625-.007812.03125-.023438.050781-.035156.003906-.003906.007812 0 .015625-.003906 34.691406-20.382813 63.714844-49.667969 83.929687-84.6875 20.222657-35.023438 31.070313-74.800782 31.378907-115.035157.027343-3.613281-1.890625-6.964843-5.019531-8.769531zm-114.289063-280.328125c21.285156 13.6875 37.792969 33.453125 47.464844 56.699219-19.164063 8.195312-35.601563 21.589844-47.519531 38.402344-8.425782-11.855469-19.101563-22.023438-31.503907-29.875-5.113281-3.234376-10.460937-6.019532-15.980469-8.367188 9.664063-23.316406 26.195313-43.136719 47.539063-56.859375zm-81.339844 130.828125v-62.285156c5.867188.632812 11.59375 1.816406 17.121094 3.507812.21875.089844.441406.183594.667969.257813.289062.09375.578125.171875.867187.238281 21.582031 7.027344 39.96875 21.90625 51.4375 42.324219-6.035156 13.746093-9.390625 28.921875-9.390625 44.867187v45.996094c-34.785156-7.351562-60.703125-38.394531-60.703125-74.90625zm8.617188 263.261719c-15.25-26.414063-24.671875-55.785157-27.65625-85.902344 24.585937 17.644531 45.3125 40.488281 60.5625 66.90625s24.671875 55.785156 27.660156 85.902344c-24.589844-17.644531-45.3125-40.488281-60.566406-66.90625zm143.261719 0c-15.230469 26.382812-35.921876 49.199219-60.464844 66.835937.003906-.152344.023437-.300781.023437-.453125v-.535156c3.101563-29.75 12.46875-58.738281 27.539063-84.84375 15.25-26.417969 35.976562-49.261719 60.5625-66.90625-2.984375 30.117187-12.40625 59.488281-27.660156 85.902344zm0 0"/><path d="m202.675781 172.457031c-1.863281 1.867188-2.941406 4.457031-2.941406 7.097657 0 2.640624 1.074219 5.230468 2.941406 7.097656 1.867188 1.867187 4.460938 2.941406 7.097657 2.941406 2.640624 0 5.230468-1.074219 7.101562-2.941406 1.863281-1.867188 2.941406-4.457032 2.941406-7.097656 0-2.640626-1.074218-5.230469-2.941406-7.097657-1.871094-1.867187-4.460938-2.941406-7.101562-2.941406-2.636719 0-5.230469 1.074219-7.097657 2.941406zm0 0"/></svg>