<svg width="148" height="131" viewBox="0 0 148 131" fill="none" xmlns="http://www.w3.org/2000/svg">
<path d="M143.664 0H4.33594C1.94134 0 0 2.24499 0 5.01412V125.353C0 128.122 1.94134 130.367 4.33594 130.367H143.664C146.059 130.367 148 128.122 148 125.353V5.01412C148 2.24499 146.059 0 143.664 0ZM26.0156 120.339H8.67188V100.282H26.0156V120.339ZM26.0156 90.2542H8.67188V70.1977H26.0156V90.2542ZM26.0156 60.1695H8.67188V40.113H26.0156V60.1695ZM26.0156 30.0847H8.67188V10.0282H26.0156V30.0847ZM113.312 120.339H34.6875V10.0282H113.312V120.339ZM139.328 120.339H121.984V100.282H139.328V120.339ZM139.328 90.2542H121.984V70.1977H139.328V90.2542ZM139.328 60.1695H121.984V40.113H139.328V60.1695ZM139.328 30.0847H121.984V10.0282H139.328V30.0847ZM63.1917 84.5893C64.5569 85.4828 66.2248 85.451 67.5588 84.5254L89.2385 69.483C90.5445 68.5768 91.3438 66.9449 91.3438 65.1836C91.3438 63.4223 90.5445 61.7904 89.2388 60.8841L67.5591 45.8418C66.219 44.9125 64.5511 44.8884 63.192 45.7779C61.8325 46.6678 60.9922 48.3348 60.9922 50.1412V80.226C60.9922 82.0324 61.8325 83.6994 63.1917 84.5893V84.5893ZM69.6641 58.9972L78.5805 65.1836L69.6641 71.37V58.9972Z" fill="url(#paint0_linear)"/>
<defs>
<linearGradient id="paint0_linear" x1="74" y1="130.367" x2="74" y2="0" gradientUnits="userSpaceOnUse">
<stop stop-color="#A64DFF"/>
<stop offset="1" stop-color="#5A9AFB"/>
</linearGradient>
</defs>
</svg>
