<svg width="48" height="48" viewBox="0 0 48 48" fill="none" xmlns="http://www.w3.org/2000/svg">
<rect width="48" height="48" rx="6" fill="#EEF2FD"/>
<path d="M37.1504 13.4551H9.84961C9.3804 13.4551 9 13.8355 9 14.3047V34.6953C9 35.1645 9.3804 35.5449 9.84961 35.5449H37.1504C37.6196 35.5449 38 35.1645 38 34.6953V14.3047C38 13.8355 37.6196 13.4551 37.1504 13.4551ZM14.0977 33.8457H10.6992V30.4473H14.0977V33.8457ZM14.0977 28.748H10.6992V25.3496H14.0977V28.748ZM14.0977 23.6504H10.6992V20.252H14.0977V23.6504ZM14.0977 18.5527H10.6992V15.1543H14.0977V18.5527ZM31.2031 33.8457H15.7969V15.1543H31.2031V33.8457ZM36.3008 33.8457H32.9023V30.4473H36.3008V33.8457ZM36.3008 28.748H32.9023V25.3496H36.3008V28.748ZM36.3008 23.6504H32.9023V20.252H36.3008V23.6504ZM36.3008 18.5527H32.9023V15.1543H36.3008V18.5527ZM21.3821 27.7882C21.6497 27.9396 21.9765 27.9342 22.2379 27.7773L26.4859 25.2285C26.7418 25.075 26.8984 24.7984 26.8984 24.5C26.8984 24.2016 26.7418 23.925 26.486 23.7715L22.2379 21.2227C21.9753 21.0652 21.6485 21.0611 21.3822 21.2118C21.1158 21.3626 20.9512 21.6451 20.9512 21.9512V27.0488C20.9512 27.3549 21.1158 27.6374 21.3821 27.7882ZM22.6504 23.4518L24.3975 24.5L22.6504 25.5482V23.4518Z" fill="url(#paint0_linear)"/>
<defs>
<linearGradient id="paint0_linear" x1="23.5" y1="35.5449" x2="23.5" y2="13.4551" gradientUnits="userSpaceOnUse">
<stop stop-color="#A64DFF"/>
<stop offset="1" stop-color="#5A9AFB"/>
</linearGradient>
</defs>
</svg>
