<svg width="29" height="29" viewBox="0 0 29 29" fill="none" xmlns="http://www.w3.org/2000/svg">
<path d="M28.1504 3.45508H0.849609C0.380398 3.45508 0 3.83548 0 4.30469V24.6953C0 25.1645 0.380398 25.5449 0.849609 25.5449H28.1504C28.6196 25.5449 29 25.1645 29 24.6953V4.30469C29 3.83548 28.6196 3.45508 28.1504 3.45508ZM5.09766 23.8457H1.69922V20.4473H5.09766V23.8457ZM5.09766 18.748H1.69922V15.3496H5.09766V18.748ZM5.09766 13.6504H1.69922V10.252H5.09766V13.6504ZM5.09766 8.55273H1.69922V5.1543H5.09766V8.55273ZM22.2031 23.8457H6.79688V5.1543H22.2031V23.8457ZM27.3008 23.8457H23.9023V20.4473H27.3008V23.8457ZM27.3008 18.748H23.9023V15.3496H27.3008V18.748ZM27.3008 13.6504H23.9023V10.252H27.3008V13.6504ZM27.3008 8.55273H23.9023V5.1543H27.3008V8.55273ZM12.3821 17.7882C12.6497 17.9396 12.9765 17.9342 13.2379 17.7773L17.4859 15.2285C17.7418 15.075 17.8984 14.7984 17.8984 14.5C17.8984 14.2016 17.7418 13.925 17.486 13.7715L13.2379 11.2227C12.9753 11.0652 12.6485 11.0611 12.3822 11.2118C12.1158 11.3626 11.9512 11.6451 11.9512 11.9512V17.0488C11.9512 17.3549 12.1158 17.6374 12.3821 17.7882ZM13.6504 13.4518L15.3975 14.5L13.6504 15.5482V13.4518Z" fill="#A692C7"/>
</svg>
