<svg id="Capa_1" enable-background="new 0 0 512.007 512.007" height="512" viewBox="0 0 512.007 512.007" width="512" xmlns="http://www.w3.org/2000/svg" xmlns:xlink="http://www.w3.org/1999/xlink"><linearGradient id="SVGID_1_" gradientUnits="userSpaceOnUse" x1="256.003" x2="256.003" y1="481.003" y2="31.003"><stop offset="0" stop-color="#00b59c"/><stop offset="1" stop-color="#9cffac"/></linearGradient><g><g><path d="m507.609 455.398-236.606-235.606v-38.789h135c6.064 0 11.543-3.647 13.857-9.258 2.329-5.61 1.04-12.056-3.252-16.348l-49.395-49.395 49.395-49.395c4.292-4.292 5.581-10.737 3.252-16.348-2.314-5.61-7.793-9.258-13.857-9.258h-150c-8.291 0-15 6.709-15 15v173.789l-236.605 235.608c-4.292 4.292-5.581 10.737-3.252 16.348 2.314 5.61 7.793 9.258 13.857 9.258h482c6.064 0 11.543-3.647 13.857-9.258 2.33-5.611 1.041-12.056-3.251-16.348zm-236.606-394.395h98.789l-34.395 34.395c-5.859 5.859-5.859 15.352 0 21.211l34.395 34.395h-98.789zm-15 186.211 83.789 83.789-23.789 23.789-49.395-49.395c-5.859-5.859-15.352-5.859-21.211 0l-49.395 49.395-23.789-23.789zm-204.789 203.789 99.789-98.789 34.395 34.395c5.859 5.859 15.352 5.859 21.211 0l49.395-49.395 49.395 49.395c5.859 5.859 15.351 5.859 21.211 0l34.395-34.395 99.789 98.789z" fill="url(#SVGID_1_)"/></g></g></svg>